# xmcd
#
# Track frame offsets: 
#        150
#        37310
#        55362
#        77480
#        103186
#        122444
#        142181
#        160856
#        183276
#        206844
#        233084
#        259249
#        280962
#        305227
#
# Disc length: 4293 seconds
#
# Revision: 2
# Processed by: cddbd v1.5.2PL0 Copyright (c) Steve Scherf et al.
# Submitted via: ExactAudioCopy v0.99pb5
#
DISCID=d310c30e
DTITLE=Dire Straits Best - Music Box Collection
DYEAR=2002
DGENRE=Rock
TTITLE0=Money For Nothing
TTITLE1=So For Away
TTITLE2=Heavy Fuel
TTITLE3=Communique
TTITLE4=The Bug
TTITLE5=Ticket To Heaven
TTITLE6=Walk Of Life
TTITLE7=When It Comes To You
TTITLE8=Once Upon A Time In The West
TTITLE9=You And Your Friend
TTITLE10=Sultans Of Swing
TTITLE11=Brothers In Arms
TTITLE12=Water Of Love
TTITLE13=Lady Writer
EXTD=by ALEXNAVY
EXTT0=by ALEXNAVY
EXTT1=by ALEXNAVY
EXTT2=by ALEXNAVY
EXTT3=by ALEXNAVY
EXTT4=by ALEXNAVY
EXTT5=by ALEXNAVY
EXTT6=by ALEXNAVY
EXTT7=by ALEXNAVY
EXTT8=by ALEXNAVY
EXTT9=by ALEXNAVY
EXTT10=by ALEXNAVY
EXTT11=by ALEXNAVY
EXTT12=by ALEXNAVY
EXTT13=by ALEXNAVY
PLAYORDER=
